<?xml version="1.0" encoding="utf-8"?>
<!-- Generator: Adobe Illustrator 18.1.1, SVG Export Plug-In . SVG Version: 6.00 Build 0)  -->
<svg version="1.1" id="Layer_1" xmlns="http://www.w3.org/2000/svg" xmlns:xlink="http://www.w3.org/1999/xlink" x="0px" y="0px"
	 viewBox="0 0 289.9 81.2" enable-background="new 0 0 289.9 81.2" xml:space="preserve">
<g>
	<path fill="#FFFFFF" d="M40.8,40.4"/>
	<path fill="#FFFFFF" d="M40.7,40.4"/>
	<path fill="#FFFFFF" d="M40.7,40.4"/>
	<path fill="#00539F" d="M40.8,6.2c-8-0.2-20.9,4-27.8,14.3c3.7,0.4,12.3,11.3,12.9,13.2c0.6,1.9,18.1,24.9,28.3,3.5
		c0,0,4.8-9.4,5.6-10.6c0,0,3.5-6.8,8.6-6.6C65.3,14.5,51.9,5.6,40.8,6.2z"/>
	<path fill="#0099D8" d="M8,30.8L8,30.8c-1.8,6.5-3.2,17.8,5.2,29.7c8.4,11.9,21.4,14.3,27.6,14.1c6.2-0.2,17.8-1.1,27.8-14.2
		c9.5-12.5,6.5-31,2.9-35.3C69,30.4,55.4,45.7,48.1,46.8c1.3,0.9,5.4,0.2,5.4,0.2s2.9,0.2,3.2,1.5c-2.4-0.2-10.9,2.3-12.8,3.4
		C42,53,34.3,58,29.6,53.7c2.2-0.1,9.2-2.4,10.2-4.1c-3.3,0.7-13.7-2-18.6-6.9C16.2,37.8,11.8,32.2,8,30.8z"/>
	<path d="M40.6,40.6"/>
	<path d="M40.6,40.5"/>
	<path d="M40.6,40.5"/>
	<g>
		<path fill="#00539F" d="M0.9,48.9l-0.1-0.4l3.4-0.8l0.1,0.5l-2.4,2.4l0,0l2.8-0.6l0.1,0.5l-3.4,0.8l-0.1-0.6l2.4-2.4l0,0L0.9,48.9
			z"/>
		<path fill="#00539F" d="M3,46.5L4,46.7l0.1,0.5l-3.7-0.8l-0.1-0.5l3.3-1.8l0.1,0.5l-1,0.5L3,46.5z M2.4,45.3L0.9,46l0,0l1.6,0.4
			L2.4,45.3z"/>
		<path fill="#00539F" d="M0.2,44.2L0,41.3l0.4,0l0.1,1.2l3.1-0.2l0,0.5l-3.1,0.2l0.1,1.2L0.2,44.2z"/>
		<path fill="#00539F" d="M3.6,40.3v0.5H0v-0.5H3.6z"/>
		<path fill="#00539F" d="M2,36.7c0.8,0.1,1.4,0.6,1.4,1.3c-0.1,0.8-0.7,1.2-1.5,1.1c-0.8-0.1-1.4-0.6-1.3-1.3
			C0.5,37,1.1,36.6,2,36.7z M2,36.2c-0.8,0-1.9,0.3-2,1.6c-0.1,1.3,1,1.8,1.7,1.8c0.8,0.1,1.9-0.3,2-1.6C3.8,36.7,2.8,36.2,2,36.2z"
			/>
		<path fill="#00539F" d="M0.7,32.9l0.1-0.5L4.3,33l-0.1,0.5l-3.1,1.3v0l2.8,0.5l-0.1,0.5l-3.5-0.6l0.1-0.6l3.1-1.3v0L0.7,32.9z"/>
		<path fill="#00539F" d="M3.2,31.3l-1.4-0.9l0,0l1.6-0.1L3.2,31.3z M3.9,30.2L5,30.1l0.1-0.5L1.4,30l-0.1,0.5l3.1,2.2l0.1-0.5
			l-0.9-0.6L3.9,30.2z"/>
		<path fill="#00539F" d="M5,28.7L5.6,27L6,27.1l-0.7,2.1l-3.3-1.2l0.2-0.5L5,28.7z"/>
		<path fill="#00539F" d="M6.3,22.3c0.7,0.4,1.1,1.1,0.7,1.7c-0.3,0.7-1.1,0.8-1.8,0.5c-0.7-0.4-1.1-1-0.7-1.7
			C4.8,22.1,5.6,21.9,6.3,22.3z M6.5,21.8c-0.7-0.3-1.8-0.5-2.4,0.7c-0.6,1.2,0.2,2,0.9,2.4c0.7,0.3,1.8,0.5,2.4-0.7
			C8,23,7.2,22.2,6.5,21.8z"/>
		<path fill="#00539F" d="M7.6,18.8c-0.6-0.2-1,0.2-1.1,0.5c-0.3,0.5-0.2,1.2,0.6,1.7c0.7,0.4,1.4,0.5,1.9-0.2
			c0.2-0.3,0.3-0.8-0.3-1.4L8.9,19c1,0.9,0.5,1.8,0.4,2c-0.4,0.7-1.3,1.1-2.4,0.4c-0.9-0.6-1.2-1.5-0.7-2.4c0.5-0.8,1.2-0.9,1.7-0.6
			L7.6,18.8z"/>
		<path fill="#00539F" d="M11.9,17.1l-1.6,2.1l-2.8-2.1L9,15l0.3,0.3l-1.3,1.7L9,17.6l1.2-1.5l0.3,0.3l-1.2,1.5l0.9,0.7l1.3-1.7
			L11.9,17.1z"/>
		<path fill="#00539F" d="M11.6,15.2l-0.8-1.5l0,0l1.5,0.7L11.6,15.2z M12.8,14.5l1,0.4l0.3-0.4l-3.5-1.4l-0.4,0.4l1.7,3.4l0.3-0.4
			l-0.5-1L12.8,14.5z"/>
		<path fill="#00539F" d="M13.8,10.1l0.3-0.3l2.4,2.6l-0.4,0.4l-3.3-0.9l0,0l1.9,2.1l-0.3,0.3L12,11.7l0.4-0.4l3.2,0.9l0,0
			L13.8,10.1z"/>
		<path fill="#00539F" d="M15.2,8.9l-0.4,0.3l2.2,2.7l0.4-0.3L15.2,8.9z"/>
		<path fill="#00539F" d="M18.7,7.7c-0.5-0.4-1-0.2-1.2,0c-0.5,0.4-0.7,1.1-0.1,1.8c0.5,0.7,1.1,1,1.8,0.5c0.3-0.2,0.6-0.6,0.3-1.4
			l0.4-0.3c0.6,1.2-0.2,1.9-0.5,2c-0.7,0.5-1.6,0.5-2.4-0.6c-0.6-0.9-0.6-1.9,0.3-2.5C17.9,6.8,18.6,7,19,7.4L18.7,7.7z"/>
		<path fill="#00539F" d="M22,6.8l-0.2-1.6l0,0L23,6.3L22,6.8z M23.3,6.6l0.8,0.7l0.5-0.2l-2.8-2.5l-0.5,0.3l0.5,3.7l0.4-0.2
			l-0.2-1.1L23.3,6.6z"/>
		<path fill="#00539F" d="M25.8,2.8l0.4-0.2l1.4,3.3l-0.5,0.2l-2.8-1.9l0,0l1.1,2.6L25,6.9l-1.4-3.3l0.5-0.2l2.7,1.9l0,0L25.8,2.8z"
			/>
		<path fill="#00539F" d="M27.8,2.5l0.9-0.3c0.6-0.2,1.1,0.1,1.4,1c0.3,0.8,0,1.4-0.6,1.6l-0.9,0.3L27.8,2.5z M28.2,5.6l1.3-0.4
			c1.1-0.3,1.1-1.4,0.9-2.2c-0.3-1-1.1-1.5-1.9-1.2l-1.4,0.4L28.2,5.6z"/>
		<path fill="#00539F" d="M33.3,2.8l0.3-1.6l0,0l0.8,1.4L33.3,2.8z M34.6,3l0.5,0.9l0.5-0.1l-1.9-3.3l-0.5,0.1l-0.7,3.7l0.5-0.1
			l0.2-1.1L34.6,3z"/>
		<path fill="#00539F" d="M35.5,0.3L38.3,0l0,0.4l-1.2,0.1l0.3,3.1l-0.5,0l-0.3-3.1l-1.2,0.1L35.5,0.3z"/>
		<path fill="#00539F" d="M41.8,3.5V1.4c0-0.1,0-0.5,0-0.9h0l-1,3h-0.5l-1-3h0c0,0.3,0,0.8,0,0.9v2.1h-0.5V0h0.7l1,3h0l1-3h0.7v3.5
			H41.8z"/>
		<path fill="#00539F" d="M45.8,2.1c-0.1,0.8-0.6,1.4-1.4,1.3c-0.8-0.1-1.2-0.7-1.1-1.6C43.5,1,44,0.5,44.8,0.5
			C45.5,0.6,45.9,1.3,45.8,2.1z M46.3,2.2c0.1-0.8-0.2-1.9-1.5-2C43.5,0,43,1,42.9,1.8c-0.1,0.8,0.2,1.9,1.5,2
			C45.7,4,46.2,2.9,46.3,2.2z"/>
		<path fill="#00539F" d="M49.2,2c0.1-0.5-0.3-0.8-0.7-0.9C48.2,1,47.7,1,47.6,1.5c-0.1,0.3,0.1,0.4,0.3,0.5l0.9,0.4
			c0.4,0.2,0.7,0.5,0.6,1.1c-0.2,0.8-1,0.9-1.6,0.8c-0.6-0.1-0.9-0.4-1-0.5c-0.2-0.3-0.2-0.6-0.2-0.9l0.4,0.1
			c-0.1,0.6,0.3,0.9,0.8,1C48.3,4,48.9,4,49,3.5C49,3.2,48.9,3,48.3,2.8l-0.7-0.3c-0.2-0.1-0.7-0.4-0.6-1c0.1-0.5,0.6-1,1.4-0.8
			c1.2,0.2,1.2,1,1.1,1.4L49.2,2z"/>
		<path fill="#00539F" d="M51.1,1.8l0.9,0.3c0.4,0.1,0.6,0.3,0.5,0.8c-0.1,0.5-0.5,0.5-0.9,0.4L50.8,3L51.1,1.8z M50.7,3.4l1.1,0.3
			c0.7,0.2,1.2-0.2,1.3-0.7c0.2-0.5-0.1-1.1-0.7-1.2l-1.5-0.4l-1,3.4l0.5,0.1L50.7,3.4z"/>
		<path fill="#00539F" d="M56.3,3.2l0.4,0.2l-1.3,3.3L55,6.4l0.6-1.5l-1.7-0.7l-0.6,1.5l-0.4-0.2l1.3-3.3l0.4,0.2l-0.5,1.4l1.7,0.7
			L56.3,3.2z"/>
		<path fill="#00539F" d="M58.4,8.1l-2.3-1.2l1.6-3.2L60,4.9l-0.2,0.4l-1.9-0.9l-0.5,1l1.7,0.9L59,6.6l-1.7-0.9l-0.5,1.1l1.9,1
			L58.4,8.1z"/>
		<path fill="#00539F" d="M61.1,6l1,0.6c0.2,0.1,0.5,0.4,0.2,0.8c-0.3,0.4-0.6,0.3-0.9,0.1L60.4,7L61.1,6z M60.2,7.4l1,0.6
			c0.5,0.3,0.4,0.6,0.2,0.9C61.3,9,61,9.4,61,9.7l0.5,0.3l0-0.1c-0.1-0.2-0.1-0.2,0-0.4L61.9,9c0.2-0.4,0.1-0.6,0-0.8
			c0.3,0,0.6,0,0.9-0.5c0.4-0.6,0-1.1-0.5-1.4l-1.4-0.9l-1.9,3l0.4,0.3L60.2,7.4z"/>
		<path fill="#00539F" d="M62.3,10.6l-0.4-0.3L64,7.5l0.4,0.3L62.3,10.6z"/>
		<path fill="#00539F" d="M66.4,10.7c0.3-0.6,0-1-0.3-1.2c-0.5-0.4-1.2-0.4-1.8,0.3c-0.5,0.6-0.7,1.3,0,1.9c0.2,0.2,0.8,0.4,1.4-0.1
			l0.4,0.3c-1,0.9-1.9,0.3-2.1,0.1c-0.6-0.5-0.9-1.4,0-2.5c0.7-0.8,1.7-1,2.4-0.4c0.7,0.6,0.7,1.3,0.4,1.8L66.4,10.7z"/>
		<path fill="#00539F" d="M68.1,13.7l1.5-0.7l0,0l-0.8,1.4L68.1,13.7z M68.7,14.9l-0.5,1l0.4,0.4l1.7-3.4l-0.4-0.4L66.4,14l0.3,0.4
			l1-0.4L68.7,14.9z"/>
		<path fill="#00539F" d="M71.6,15l0.5,0.7c0.4,0.5,0.3,1.1-0.4,1.7c-0.7,0.6-1.3,0.5-1.7,0l-0.6-0.7L71.6,15z M68.8,16.6l0.9,1.1
			c0.7,0.9,1.7,0.5,2.4,0.1c0.8-0.6,1-1.5,0.4-2.2l-0.9-1.1L68.8,16.6z"/>
		<path fill="#00539F" d="M72.5,21.8l1.8-1.1c0.1-0.1,0.5-0.3,0.7-0.5l0,0L72,21l-0.3-0.4l2-2.4l0,0c-0.3,0.2-0.6,0.4-0.7,0.5
			l-1.8,1.1l-0.2-0.4l3-1.9l0.4,0.6l-2,2.5l0,0l3.1-0.8l0.4,0.6l-3,1.9L72.5,21.8z"/>
		<path fill="#00539F" d="M73.3,23.3l-0.2-0.4l3.1-1.7l0.2,0.4L73.3,23.3z"/>
		<path fill="#00539F" d="M77.9,24.7l0.2,0.4l-3.2,1.5L74.6,26l1.9-2.8l0,0l-2.6,1.2L73.7,24l3.2-1.5l0.2,0.5l-1.9,2.8l0,0
			L77.9,24.7z"/>
		<path fill="#00539F" d="M75.3,27.7l-0.2-0.4l3.3-1.2l0.2,0.5L75.3,27.7z"/>
		<path fill="#00539F" d="M78.6,29.7c0.5-0.2,0.5-0.7,0.4-1c-0.1-0.3-0.3-0.7-0.8-0.6c-0.3,0.1-0.3,0.3-0.3,0.5l0.1,1
			c0,0.5-0.1,0.9-0.7,1c-0.8,0.2-1.2-0.4-1.4-1c-0.2-0.6-0.1-0.9,0-1.1c0.2-0.4,0.4-0.5,0.7-0.6l0.1,0.4c-0.6,0.2-0.6,0.7-0.5,1.2
			c0.1,0.3,0.4,0.9,0.8,0.7c0.4-0.1,0.4-0.3,0.4-0.9l-0.1-0.7c0-0.2,0-0.8,0.6-1c0.5-0.2,1.2,0,1.4,0.8c0.4,1.2-0.3,1.5-0.7,1.6
			L78.6,29.7z"/>
		<path fill="#00539F" d="M79.9,30.5l0.6,2.8l-0.4,0.1l-0.3-1.2l-3,0.7l-0.1-0.5l3-0.7l-0.3-1.2L79.9,30.5z"/>
		<path fill="#00539F" d="M80.3,34.6l0.1,1.2c0,0.2,0,0.6-0.5,0.7c-0.5,0.1-0.7-0.3-0.7-0.6l-0.1-1.1L80.3,34.6z M78.7,34.8l0.1,1.1
			c0.1,0.6-0.3,0.7-0.5,0.7c-0.1,0-0.7,0.1-0.9,0.2l0.1,0.6l0.1,0c0.1-0.2,0.1-0.2,0.3-0.2l0.6-0.1c0.5-0.1,0.5-0.3,0.6-0.5
			c0.2,0.2,0.4,0.4,0.9,0.4c0.7-0.1,0.9-0.7,0.8-1.3l-0.2-1.6l-3.5,0.4l0.1,0.5L78.7,34.8z"/>
		<path fill="#00539F" d="M78.5,38.5l-1-0.3l0-0.5l3.6,1.2l0,0.5l-3.5,1.4l0-0.5l1-0.4L78.5,38.5z M79,39.7l1.5-0.6v0L79,38.6
			L79,39.7z"/>
		<path fill="#00539F" d="M81.1,41L81,43.9l-0.4,0l0.1-1.2l-3.1-0.1l0-0.5l3.1,0.1l0.1-1.2L81.1,41z"/>
		<path fill="#00539F" d="M77.3,44.7l0-0.5l3.5,0.4l0,0.5L77.3,44.7z"/>
		<path fill="#00539F" d="M78.5,48.4c-0.8-0.1-1.3-0.7-1.2-1.5c0.1-0.8,0.8-1.1,1.6-1c0.8,0.1,1.3,0.7,1.2,1.5
			C80,48.2,79.4,48.6,78.5,48.4z M78.5,48.9c0.7,0.1,1.9-0.1,2.1-1.4c0.2-1.3-0.8-1.9-1.5-2c-0.8-0.1-1.9,0.1-2.1,1.4
			C76.7,48.2,77.7,48.8,78.5,48.9z"/>
		<path fill="#00539F" d="M79.4,52.3l-0.1,0.4l-3.4-0.9l0.1-0.5l3.2-1l0,0l-2.8-0.8l0.1-0.4L80,50l-0.2,0.5l-3.2,0.9v0L79.4,52.3z"
			/>
		<path fill="#00539F" d="M40.6,40.5"/>
	</g>
	<g>
		<path fill="#00539F" d="M8.6,59.3l-2,1.1c-0.6,0.3-1.4,0.2-1.9-0.6C4.2,59,4.6,58.3,5.2,58l2.1-1.1l0.2,0.4l-2,1.1
			c-0.7,0.4-0.6,0.9-0.4,1.3C5.3,60,5.7,60.3,6.4,60l2-1.1L8.6,59.3z"/>
		<path fill="#00539F" d="M6.3,62.3L6,61.9l0.4-0.3L6.7,62L6.3,62.3z"/>
		<path fill="#00539F" d="M10,63.4c0.4-0.3,0.3-0.8,0.1-1.1c-0.2-0.2-0.5-0.6-1-0.3c-0.2,0.2-0.2,0.4-0.1,0.6l0.4,1
			c0.2,0.4,0.2,0.9-0.3,1.2c-0.7,0.5-1.3,0-1.7-0.5c-0.4-0.5-0.4-0.9-0.3-1.1c0-0.4,0.3-0.6,0.5-0.8l0.3,0.4
			c-0.5,0.4-0.4,0.9-0.1,1.3c0.2,0.3,0.6,0.7,1,0.4c0.3-0.2,0.3-0.4,0.1-1l-0.3-0.7c-0.1-0.2-0.3-0.7,0.2-1.1
			c0.4-0.3,1.1-0.3,1.6,0.4c0.7,1,0.2,1.5-0.1,1.8L10,63.4z"/>
		<path fill="#00539F" d="M9.2,66.3l-0.3-0.4l0.4-0.3L9.6,66L9.2,66.3z"/>
		<path fill="#00539F" d="M13.3,66.3L14,67c0.5,0.5,0.4,1.1-0.2,1.7c-0.6,0.6-1.3,0.7-1.7,0.2l-0.7-0.7L13.3,66.3z M10.8,68.2l1,1
			c0.8,0.8,1.8,0.3,2.4-0.2c0.7-0.7,0.8-1.6,0.2-2.3l-1-1L10.8,68.2z"/>
		<path fill="#00539F" d="M15.5,72.6l-2-1.7l2.3-2.7l2,1.7l-0.3,0.3l-1.6-1.3l-0.7,0.8l1.5,1.2l-0.3,0.3L14.9,70l-0.8,0.9l1.6,1.4
			L15.5,72.6z"/>
		<path fill="#00539F" d="M18.5,70.8l0.8,0.6c0.3,0.2,0.5,0.5,0.2,0.9c-0.3,0.4-0.6,0.4-1,0.1l-0.8-0.5L18.5,70.8z M17.5,72.2
			l0.9,0.6c0.6,0.4,1.2,0.1,1.5-0.3c0.3-0.5,0.2-1-0.3-1.4l-1.3-0.9l-2,2.9l0.4,0.3L17.5,72.2z"/>
		<path fill="#00539F" d="M20.5,74.2l1.3-1.1l0,0l-0.3,1.6L20.5,74.2z M21.4,75.2l-0.2,1.1l0.5,0.3l0.7-3.7l-0.5-0.3L18.9,75
			l0.4,0.2l0.8-0.7L21.4,75.2z"/>
		<path fill="#00539F" d="M22.8,77.1l-0.4-0.2l1.5-3.2l1.5,0.7c0.5,0.2,1,0.7,0.7,1.3c-0.2,0.5-0.5,0.5-0.8,0.6
			c0.2,0.2,0.3,0.3,0.1,0.8L25,77.6c-0.1,0.2-0.1,0.3,0,0.4l0,0.1l-0.5-0.2c0-0.2,0.2-0.7,0.3-0.8c0.1-0.3,0.2-0.6-0.3-0.8l-1-0.5
			L22.8,77.1z M23.6,75.3l1,0.5c0.3,0.1,0.7,0.2,0.9-0.3c0.2-0.5-0.1-0.7-0.3-0.8l-1.1-0.5L23.6,75.3z"/>
		<path fill="#00539F" d="M26.7,75l2.7,1l-0.1,0.4l-1.1-0.4l-1,2.9l-0.4-0.2l1-2.9l-1.1-0.4L26.7,75z"/>
		<path fill="#00539F" d="M31.8,80.2l0.5-2c0-0.1,0.1-0.5,0.2-0.9l0,0L30.8,80l-0.5-0.1l-0.2-3.1l0,0c-0.1,0.3-0.2,0.8-0.2,0.9
			l-0.5,2l-0.4-0.1l0.9-3.4l0.7,0.2l0.2,3.1l0,0l1.7-2.7l0.7,0.2l-0.9,3.4L31.8,80.2z"/>
		<path fill="#00539F" d="M35.9,80.9l-2.6-0.4l0.5-3.5l2.5,0.4l-0.1,0.4l-2.1-0.3l-0.2,1.1l1.9,0.3l-0.1,0.4L34,79l-0.2,1.2l2.1,0.3
			L35.9,80.9z"/>
		<path fill="#00539F" d="M39.4,77.6l0.5,0l-0.2,3.5l-0.5,0l-1.6-3l0,0L37.3,81l-0.5,0l0.2-3.5l0.6,0l1.6,3h0L39.4,77.6z"/>
		<path fill="#00539F" d="M40.2,77.6l2.9-0.1l0,0.4l-1.2,0l0.1,3.1l-0.5,0L41.4,78l-1.2,0L40.2,77.6z"/>
		<path fill="#00539F" d="M47.7,78.7c0.1,0.8-0.2,1.5-1,1.6c-0.8,0.1-1.3-0.4-1.4-1.2c-0.1-0.8,0.2-1.5,1-1.6
			C47,77.4,47.6,77.9,47.7,78.7z M48.2,78.7c-0.1-0.8-0.7-1.8-2-1.6c-1.3,0.2-1.5,1.3-1.4,2.1c0.1,0.8,0.7,1.8,2,1.6
			C48.1,80.6,48.3,79.4,48.2,78.7z"/>
		<path fill="#00539F" d="M49.8,80.1l-0.5,0.1l-0.9-3.4l2.4-0.6l0.1,0.4L49,77.1l0.3,1l1.7-0.4l0.1,0.4l-1.7,0.4L49.8,80.1z"/>
		<path fill="#00539F" d="M55.2,75.8c-0.3-0.5-0.9-0.5-1.2-0.3c-0.6,0.2-0.9,0.9-0.6,1.7c0.3,0.8,0.8,1.3,1.6,1
			c0.3-0.1,0.7-0.4,0.6-1.3l0.4-0.2c0.3,1.3-0.7,1.8-0.9,1.9c-0.8,0.3-1.7,0.1-2.2-1.2c-0.4-1-0.1-1.9,0.9-2.3
			c0.9-0.3,1.5,0,1.8,0.6L55.2,75.8z"/>
		<path fill="#00539F" d="M59.1,74.7c0.4,0.7,0.2,1.5-0.5,1.8c-0.7,0.3-1.4,0-1.7-0.7c-0.4-0.7-0.2-1.5,0.5-1.8
			C58,73.6,58.7,74,59.1,74.7z M59.5,74.5c-0.3-0.7-1.2-1.5-2.4-0.9c-1.2,0.6-1,1.8-0.7,2.4c0.3,0.7,1.2,1.5,2.4,0.9
			C60,76.3,59.8,75.2,59.5,74.5z"/>
		<path fill="#00539F" d="M63.5,74.1l-1.1-1.8c-0.1-0.1-0.3-0.5-0.5-0.7l0,0l0.8,3l-0.4,0.3l-2.4-2l0,0c0.2,0.3,0.4,0.6,0.5,0.7
			l1.1,1.8l-0.4,0.3l-1.9-3l0.6-0.4l2.5,2l0,0l-0.8-3.1l0.6-0.4l1.9,3L63.5,74.1z"/>
		<path fill="#00539F" d="M67,71.4l-1.3-1.6c-0.1-0.1-0.3-0.4-0.5-0.7l0,0l1.1,2.9l-0.4,0.3l-2.6-1.7l0,0c0.2,0.3,0.5,0.6,0.6,0.7
			l1.3,1.6l-0.4,0.3l-2.2-2.7l0.5-0.4l2.7,1.7l0,0l-1.1-3l0.5-0.4l2.2,2.7L67,71.4z"/>
		<path fill="#00539F" d="M70,68.5l-1.9,1.8l-2.5-2.5l1.8-1.8l0.3,0.3l-1.5,1.5l0.8,0.8l1.4-1.4l0.3,0.3l-1.4,1.4l0.8,0.8l1.5-1.5
			L70,68.5z"/>
		<path fill="#00539F" d="M68.6,65.4l0.8-0.9c0.2-0.2,0.4-0.5,0.9-0.1c0.4,0.3,0.2,0.7,0,0.9l-0.7,0.8L68.6,65.4z M69.8,66.5
			l0.7-0.9c0.4-0.4,0.7-0.3,0.9-0.1c0.1,0.1,0.5,0.4,0.7,0.5l0.4-0.4l-0.1-0.1c-0.2,0.1-0.2,0-0.4-0.1L71.6,65
			c-0.4-0.3-0.6-0.2-0.8-0.1c0-0.3,0.1-0.6-0.3-0.9c-0.6-0.5-1.1-0.2-1.5,0.3L68,65.5l2.7,2.3l0.3-0.4L69.8,66.5z"/>
		<path fill="#00539F" d="M72.5,61.4c-0.6-0.2-1,0.1-1.2,0.4C71,62.3,71,63,71.8,63.6c0.7,0.5,1.4,0.6,1.9-0.1
			c0.2-0.3,0.4-0.8-0.2-1.4l0.3-0.4c1,0.9,0.4,1.8,0.3,2.1c-0.5,0.7-1.3,1-2.4,0.2c-0.9-0.6-1.2-1.6-0.6-2.4
			c0.5-0.7,1.3-0.8,1.8-0.5L72.5,61.4z"/>
		<path fill="#00539F" d="M76.6,59.4l-1.3,2.3l-3.1-1.7l1.3-2.2l0.4,0.2l-1,1.8l0.9,0.5l1-1.7l0.4,0.2l-1,1.7l1,0.6l1.1-1.9
			L76.6,59.4z"/>
		<path fill="#00539F" d="M40.6,40.5"/>
	</g>
	<path fill="#FFFFFF" d="M30.6,28.9h1.8c0,0,0-6.3,0-7.3c0-1-0.9-1.7-2.1-1.7h-3.8v9h1.8v-7.3c0,0,1.3,0,1.7,0
		c0.4,0,0.6,0.3,0.6,0.7c0,0.4,0,0,0,0V28.9z"/>
	<path fill="#FFFFFF" d="M33.9,27.2v-5v-0.7c0-1.3,1.2-1.7,1.8-1.7c0.6,0,2.2,0,2.2,0c0.9,0,1.8,0.7,1.8,1.7c0,1.1,0,5.6,0,5.6
		c0,0.7-1,1.7-1.8,1.7c-0.8,0-2.2,0-2.2,0C35,28.9,33.9,28.1,33.9,27.2z M36.2,27.2h1.3c0,0,0.4-0.3,0.4-0.6c0,0,0-4.2,0-4.3
		c0,0,0-0.7-0.5-0.7c0,0-1.1-0.2-1.3,0c-0.4,0.3-0.5,0.1-0.5,0.7v4.3C35.9,27.1,36.1,27.2,36.2,27.2z"/>
	<path fill="#FFFFFF" d="M41.2,28.9v-7.3c0-1.1,1.2-1.7,1.8-1.7c0.6,0,2.2,0,2.2,0c0.9,0,1.8,0.6,1.8,1.7c0,1.1,0,7.3,0,7.3h-1.8
		v-3.4h-2.2v3.4H41.2z M45.3,22.2c0,0,0-0.7-0.7-0.7c0,0-0.7,0-1,0c-0.3,0-0.6,0.3-0.6,0.7v1.5h2.2V22.2z"/>
	<path fill="#FFFFFF" d="M48.6,28.9v-7.3c0-1.1,1.2-1.7,1.8-1.7c0.6,0,2.3,0,2.3,0c0.9,0,1.8,0.6,1.8,1.7c0,1.1,0,7.3,0,7.3h-1.8
		v-3.4h-2.3v3.4H48.6z M52.7,22.2c0,0,0-0.7-0.7-0.7c0,0-0.7,0-1,0c-0.3,0-0.6,0.3-0.6,0.7v1.5h2.3V22.2z"/>
	<path fill="#FFFFFF" d="M68.3,20c-5-0.1-8.5,6.6-8.5,6.6c-0.8,1.2-5.6,10.6-5.6,10.6c-10.3,21.5-27.8-1.6-28.4-3.5
		c-0.5-1.9-9-12.5-12.7-13.2l0,0c-2.5,3.5-3.8,6.2-5,10.2c3.8,1.4,8,7.1,13,12c5,4.9,15.4,7.6,18.7,6.9c-1,1.7-8,4-10.3,4.1
		c4.7,4.4,12.5-0.7,14.4-1.8c1.9-1.1,10.4-3.6,12.9-3.4c-0.3-1.3-3.2-1.5-3.2-1.5s-4.1,0.6-5.4-0.2c7.3-1.1,20.9-16.2,23.3-21.6
		c0,0.1-0.1-0.1,0,0C70.5,23.3,69.6,21.7,68.3,20z"/>
	<path fill="#FFFFFF" d="M68.3,20c0,0,1.7,1.4,3.2,5.2l-3.3-1L68.3,20z"/>
</g>
<g>
	<path fill="#00539F" d="M97.5,9.1l8.4,13.5h0.1V9.1h4.1v20.1h-4.4l-8.4-13.4h-0.1v13.4h-4.1V9.1H97.5z"/>
	<path fill="#00539F" d="M112.3,15c0.5-1.3,1.1-2.4,1.9-3.4c0.8-1,1.9-1.7,3.1-2.3c1.2-0.5,2.6-0.8,4.1-0.8c1.6,0,2.9,0.3,4.2,0.8
		c1.2,0.5,2.3,1.3,3.1,2.3c0.8,1,1.5,2.1,1.9,3.4c0.4,1.3,0.7,2.7,0.7,4.2c0,1.5-0.2,2.8-0.7,4.1c-0.4,1.3-1.1,2.4-1.9,3.3
		c-0.8,0.9-1.9,1.7-3.1,2.2c-1.2,0.5-2.6,0.8-4.2,0.8c-1.5,0-2.9-0.3-4.1-0.8c-1.2-0.5-2.3-1.3-3.1-2.2c-0.8-0.9-1.5-2-1.9-3.3
		c-0.5-1.3-0.7-2.6-0.7-4.1C111.7,17.7,111.9,16.3,112.3,15z M116.4,21.7c0.2,0.8,0.5,1.5,0.9,2.2c0.4,0.6,1,1.1,1.7,1.5
		c0.7,0.4,1.5,0.6,2.5,0.6c1,0,1.8-0.2,2.5-0.6c0.7-0.4,1.3-0.9,1.7-1.5c0.4-0.6,0.7-1.4,0.9-2.2c0.2-0.8,0.3-1.6,0.3-2.5
		c0-0.9-0.1-1.7-0.3-2.6c-0.2-0.8-0.5-1.6-0.9-2.2c-0.4-0.6-1-1.2-1.7-1.5c-0.7-0.4-1.5-0.6-2.5-0.6c-1,0-1.8,0.2-2.5,0.6
		c-0.7,0.4-1.3,0.9-1.7,1.5c-0.4,0.6-0.7,1.4-0.9,2.2c-0.2,0.8-0.3,1.7-0.3,2.6C116.1,20,116.2,20.9,116.4,21.7z"/>
	<path fill="#00539F" d="M142.2,9.1l7.5,20.1h-4.6l-1.5-4.5h-7.5l-1.6,4.5h-4.4l7.6-20.1H142.2z M142.5,21.4L140,14h-0.1l-2.6,7.4
		H142.5z"/>
	<path fill="#00539F" d="M161.4,9.1l7.5,20.1h-4.6l-1.5-4.5h-7.5l-1.6,4.5h-4.4l7.6-20.1H161.4z M161.7,21.4l-2.5-7.4h-0.1l-2.6,7.4
		H161.7z"/>
	<path fill="#0099D8" d="M93.1,32.4h7.6v2.3h-4.9v3.2h4.6v2.3h-4.6v5.9h-2.8V32.4z"/>
	<path fill="#0099D8" d="M102,46.1V32.4h2.8v13.7H102z"/>
	<path fill="#0099D8" d="M108.8,41.8v0.4c0,1.3,0.4,2.1,1.8,2.1c0.8,0,1.6-0.5,1.6-1.7c0-1.2-0.6-1.7-2.5-2.3
		c-2.5-0.8-3.6-1.9-3.6-4.1c0-2.7,1.6-4,4.2-4c2.5,0,4.2,1.1,4.2,3.7v0.4h-2.6c0-1.3-0.4-2-1.5-2c-1.2,0-1.6,0.8-1.6,1.6
		c0,0.8,0.2,1.4,1.4,1.9l2.1,0.9c2.1,0.9,2.6,1.9,2.6,3.6c0,2.9-1.8,4.2-4.7,4.2c-3.1,0-4.3-1.5-4.3-4v-0.6H108.8z"/>
	<path fill="#0099D8" d="M116.4,32.4h2.8v5.2h3.2v-5.2h2.8v13.7h-2.8V40h-3.2v6.1h-2.8V32.4z"/>
	<path fill="#0099D8" d="M134.5,32.4v2.3h-4.9v3.2h4.6v2.3h-4.6v3.7h5.1v2.3h-7.8V32.4H134.5z"/>
	<path fill="#0099D8" d="M135.9,32.4h5.1c2.3,0,3.6,1.2,3.6,3.5c0,1.8-0.7,3-2.3,3.4v0c1.9,0.2,2.1,1.3,2.2,4.2
		c0,1.5,0.1,2.2,0.6,2.5v0.1h-3c-0.3-0.4-0.3-0.9-0.3-1.4l-0.1-2.6c-0.1-1.1-0.5-1.7-1.6-1.7h-1.5v5.8h-2.8V32.4z M138.7,38.4h1.1
		c1.3,0,2.1-0.6,2.1-2c0-1.3-0.6-1.9-1.9-1.9h-1.3V38.4z"/>
	<path fill="#0099D8" d="M146.5,46.1V32.4h2.8v13.7H146.5z"/>
	<path fill="#0099D8" d="M158.7,32.4v2.3h-4.9v3.2h4.6v2.3h-4.6v3.7h5.1v2.3H151V32.4H158.7z"/>
	<path fill="#0099D8" d="M162.5,41.8v0.4c0,1.3,0.4,2.1,1.8,2.1c0.8,0,1.6-0.5,1.6-1.7c0-1.2-0.6-1.7-2.4-2.3
		c-2.4-0.8-3.6-1.9-3.6-4.1c0-2.7,1.6-4,4.2-4c2.5,0,4.2,1.1,4.2,3.7v0.4h-2.6c0-1.3-0.4-2-1.5-2c-1.2,0-1.6,0.8-1.6,1.6
		c0,0.8,0.2,1.4,1.4,1.9l2.1,0.9c2.1,0.9,2.6,1.9,2.6,3.6c0,2.9-1.8,4.2-4.7,4.2c-3.1,0-4.3-1.5-4.3-4v-0.6H162.5z"/>
</g>
<g>
	<path fill="#00539E" d="M108.4,71.6H105L102.4,61h0l-2.6,10.5h-3.5l-4.1-15.5h3.4l2.5,10.5h0l2.7-10.5h3.2l2.6,10.7h0l2.5-10.7h3.3
		L108.4,71.6z"/>
	<path fill="#00539E" d="M115.5,66.7c0.1,2,1,2.8,2.8,2.8c1.2,0,2.2-0.8,2.4-1.5h2.7c-0.9,2.6-2.7,3.8-5.3,3.8
		c-3.5,0-5.7-2.4-5.7-5.9c0-3.4,2.3-5.9,5.7-5.9c3.8,0,5.7,3.2,5.4,6.7H115.5z M120.5,64.8c-0.3-1.6-1-2.4-2.5-2.4
		c-2,0-2.5,1.5-2.6,2.4H120.5z"/>
	<path fill="#00539E" d="M127.8,67.9c0,1.3,1.1,1.9,2.4,1.9c0.9,0,2-0.3,2-1.4c0-0.9-1.3-1.3-3.5-1.7c-1.8-0.4-3.6-1-3.6-3
		c0-2.9,2.5-3.6,4.9-3.6c2.5,0,4.7,0.8,4.9,3.6h-2.9c-0.1-1.2-1-1.5-2.1-1.5c-0.7,0-1.7,0.1-1.7,1c0,1.1,1.7,1.3,3.5,1.7
		c1.8,0.4,3.6,1.1,3.6,3.1c0,3-2.6,3.9-5.1,3.9c-2.6,0-5.1-1-5.3-3.9H127.8z"/>
	<path fill="#00539E" d="M141,60.4h2.3v2.1H141V68c0,1,0.3,1.3,1.3,1.3c0.3,0,0.6,0,1-0.1v2.4c-0.5,0.1-1.2,0.1-1.8,0.1
		c-1.9,0-3.5-0.4-3.5-2.7v-6.6h-1.9v-2.1h1.9V57h3.1V60.4z"/>
	<path fill="#00539E" d="M161.4,61.3c-0.2-1.5-1.7-2.7-3.4-2.7c-3.1,0-4.2,2.6-4.2,5.3c0,2.6,1.1,5.2,4.2,5.2c2.1,0,3.3-1.4,3.5-3.5
		h3.3c-0.3,3.9-3,6.3-6.8,6.3c-4.8,0-7.6-3.6-7.6-8c0-4.6,2.8-8.2,7.6-8.2c3.4,0,6.3,2,6.7,5.6H161.4z"/>
	<path fill="#00539E" d="M172.3,60.1c3.5,0,5.8,2.3,5.8,5.9c0,3.6-2.3,5.9-5.8,5.9c-3.5,0-5.8-2.3-5.8-5.9
		C166.5,62.4,168.8,60.1,172.3,60.1z M172.3,69.6c2.1,0,2.7-1.8,2.7-3.6c0-1.8-0.6-3.6-2.7-3.6c-2.1,0-2.7,1.8-2.7,3.6
		C169.6,67.8,170.2,69.6,172.3,69.6z"/>
	<path fill="#00539E" d="M180,63.8c0.2-2.9,2.8-3.8,5.3-3.8c2.2,0,4.9,0.5,4.9,3.2v5.8c0,1,0.1,2,0.4,2.5h-3.1
		c-0.1-0.3-0.2-0.7-0.2-1.1c-1,1-2.4,1.4-3.8,1.4c-2.1,0-3.8-1.1-3.8-3.4c0-2.5,1.9-3.1,3.8-3.4c1.9-0.3,3.6-0.2,3.6-1.5
		c0-1.3-0.9-1.5-2-1.5c-1.2,0-1.9,0.5-2,1.7H180z M187.1,66.1c-0.5,0.5-1.6,0.5-2.6,0.7c-1,0.2-1.8,0.5-1.8,1.6
		c0,1.1,0.9,1.4,1.9,1.4c2.4,0,2.5-1.9,2.5-2.6V66.1z"/>
	<path fill="#00539E" d="M195,67.9c0,1.3,1.1,1.9,2.4,1.9c0.9,0,2-0.3,2-1.4c0-0.9-1.3-1.3-3.5-1.7c-1.8-0.4-3.6-1-3.6-3
		c0-2.9,2.5-3.6,4.9-3.6c2.5,0,4.7,0.8,4.9,3.6h-2.9c-0.1-1.2-1-1.5-2.1-1.5c-0.7,0-1.7,0.1-1.7,1c0,1.1,1.7,1.3,3.5,1.7
		c1.8,0.4,3.6,1.1,3.6,3.1c0,3-2.6,3.9-5.1,3.9c-2.6,0-5.1-1-5.3-3.9H195z"/>
	<path fill="#00539E" d="M208.1,60.4h2.3v2.1h-2.3V68c0,1,0.3,1.3,1.3,1.3c0.3,0,0.6,0,1-0.1v2.4c-0.5,0.1-1.2,0.1-1.8,0.1
		c-1.9,0-3.5-0.4-3.5-2.7v-6.6h-1.9v-2.1h1.9V57h3.1V60.4z"/>
	<path fill="#00539E" d="M218.2,56.1h8.4c2.8,0,4.5,1.9,4.5,4.3c0,1.8-0.7,3.2-2.5,3.9v0c1.7,0.4,2.1,2.1,2.3,3.6
		c0.1,1,0,2.8,0.7,3.7h-3.4c-0.4-1-0.4-2.5-0.5-3.7c-0.2-1.6-0.9-2.3-2.6-2.3h-3.4v6.1h-3.4V56.1z M221.6,63.1h3.7
		c1.5,0,2.3-0.7,2.3-2.2c0-1.5-0.8-2.1-2.3-2.1h-3.7V63.1z"/>
	<path fill="#00539E" d="M236.1,66.7c0.1,2,1,2.8,2.8,2.8c1.2,0,2.2-0.8,2.4-1.5h2.7c-0.9,2.6-2.7,3.8-5.3,3.8
		c-3.5,0-5.7-2.4-5.7-5.9c0-3.4,2.3-5.9,5.7-5.9c3.8,0,5.7,3.2,5.4,6.7H236.1z M241.1,64.8c-0.3-1.6-1-2.4-2.5-2.4
		c-2,0-2.5,1.5-2.6,2.4H241.1z"/>
	<path fill="#00539E" d="M256.8,70.9c0,1.8-0.7,5-5.8,5c-2.2,0-4.8-1-4.9-3.6h3.1c0.3,1.1,1.2,1.5,2.3,1.5c1.7,0,2.5-1.2,2.5-2.8
		v-1.5h0c-0.7,1.2-2,1.7-3.4,1.7c-3.4,0-4.8-2.6-4.8-5.6c0-2.9,1.7-5.6,4.8-5.6c1.5,0,2.6,0.5,3.3,1.8h0v-1.5h2.9V70.9z M253.9,65.8
		c0-1.8-0.6-3.5-2.6-3.5c-1.7,0-2.5,1.5-2.5,3.2c0,1.6,0.6,3.4,2.5,3.4C253,68.9,253.9,67.5,253.9,65.8z"/>
	<path fill="#00539E" d="M262.5,58.6h-3.1v-2.5h3.1V58.6z M259.4,60.4h3.1v11.2h-3.1V60.4z"/>
	<path fill="#00539E" d="M270.3,60.1c3.5,0,5.8,2.3,5.8,5.9c0,3.6-2.3,5.9-5.8,5.9c-3.5,0-5.8-2.3-5.8-5.9
		C264.6,62.4,266.8,60.1,270.3,60.1z M270.3,69.6c2.1,0,2.7-1.8,2.7-3.6c0-1.8-0.6-3.6-2.7-3.6c-2.1,0-2.7,1.8-2.7,3.6
		C267.6,67.8,268.3,69.6,270.3,69.6z"/>
	<path fill="#00539E" d="M278.2,60.4h2.9v1.6h0.1c0.8-1.3,2.1-1.9,3.4-1.9c3.3,0,4.1,1.8,4.1,4.6v6.9h-3.1v-6.3c0-1.8-0.5-2.8-2-2.8
		c-1.7,0-2.4,0.9-2.4,3.2v5.9h-3.1V60.4z"/>
</g>
<g>
</g>
<g>
</g>
<g>
</g>
<g>
</g>
<g>
</g>
<g>
</g>
</svg>
